<mxfile host="app.diagrams.net" agent="Mozilla/5.0 (Windows NT 10.0; Win64; x64) AppleWebKit/537.36 (KHTML, like Gecko) Chrome/134.0.0.0 Safari/537.36 Edg/134.0.0.0" version="26.1.0">
  <diagram id="psAfjCXZujPrBiXJYCEb" name="Page-1">
    <mxGraphModel dx="6308" dy="454" grid="1" gridSize="10" guides="1" tooltips="1" connect="1" arrows="1" fold="1" page="0" pageScale="1" pageWidth="850" pageHeight="1100" background="none" math="0" shadow="0">
      <root>
        <mxCell id="0" />
        <mxCell id="1" parent="0" />
        <mxCell id="node5" value="&lt;p style=&quot;margin:0px;margin-top:4px;text-align:center;&quot;&gt;&lt;b&gt;KitchenGUI&lt;/b&gt;&lt;/p&gt;&lt;hr size=&quot;1&quot;/&gt;&lt;p style=&quot;margin:0 0 0 4px;line-height:1.6;&quot;&gt;+ KitchenGUI(): void&lt;/p&gt;" style="verticalAlign=top;align=left;overflow=fill;fontSize=14;fontFamily=Helvetica;html=1;rounded=0;shadow=0;comic=0;labelBackgroundColor=none;strokeWidth=1;" parent="1" vertex="1">
          <mxGeometry x="-1491" y="1880" width="147" height="67" as="geometry" />
        </mxCell>
        <mxCell id="n7cuw4-B28qV0KOe3FSm-73" style="edgeStyle=orthogonalEdgeStyle;rounded=0;orthogonalLoop=1;jettySize=auto;html=1;" edge="1" parent="1" source="node0" target="n7cuw4-B28qV0KOe3FSm-26">
          <mxGeometry relative="1" as="geometry">
            <Array as="points">
              <mxPoint x="-1940" y="2500" />
              <mxPoint x="-1940" y="2461" />
            </Array>
          </mxGeometry>
        </mxCell>
        <mxCell id="n7cuw4-B28qV0KOe3FSm-81" style="edgeStyle=orthogonalEdgeStyle;rounded=0;orthogonalLoop=1;jettySize=auto;html=1;" edge="1" parent="1" source="node0" target="n7cuw4-B28qV0KOe3FSm-80">
          <mxGeometry relative="1" as="geometry" />
        </mxCell>
        <mxCell id="n7cuw4-B28qV0KOe3FSm-83" style="edgeStyle=orthogonalEdgeStyle;rounded=0;orthogonalLoop=1;jettySize=auto;html=1;entryX=0.5;entryY=0;entryDx=0;entryDy=0;" edge="1" parent="1" source="node0" target="n7cuw4-B28qV0KOe3FSm-24">
          <mxGeometry relative="1" as="geometry">
            <Array as="points">
              <mxPoint x="-1770" y="2368" />
              <mxPoint x="-1770" y="1470" />
              <mxPoint x="-2340" y="1470" />
            </Array>
          </mxGeometry>
        </mxCell>
        <mxCell id="n7cuw4-B28qV0KOe3FSm-86" style="edgeStyle=orthogonalEdgeStyle;rounded=0;orthogonalLoop=1;jettySize=auto;html=1;entryX=1;entryY=0.5;entryDx=0;entryDy=0;" edge="1" parent="1" source="node0" target="n7cuw4-B28qV0KOe3FSm-22">
          <mxGeometry relative="1" as="geometry">
            <Array as="points">
              <mxPoint x="-1617" y="2841" />
            </Array>
          </mxGeometry>
        </mxCell>
        <mxCell id="node0" value="&lt;p style=&quot;margin:0px;margin-top:4px;text-align:center;&quot;&gt;&lt;b&gt;KitchenGUIController&lt;/b&gt;&lt;/p&gt;&lt;hr size=&quot;1&quot;/&gt;&lt;p style=&quot;margin:0 0 0 4px;line-height:1.6;&quot;&gt;+ ready: Button&lt;br/&gt;- extractedTableNumberString: String&lt;br/&gt;+ order: ObservableList&amp;lt;String&amp;gt;&lt;br/&gt;+ cook: Button&lt;br/&gt;- selectedOrder: Object&lt;br/&gt;- now: Calendar&lt;br/&gt;- extractedTableNumberInteger: int&lt;br/&gt;- kitchenOrdersList: ListView&lt;br/&gt;+ addOrders: Thread&lt;/p&gt;&lt;hr size=&quot;1&quot;/&gt;&lt;p style=&quot;margin:0 0 0 4px;line-height:1.6;&quot;&gt;+ initialize(): void&lt;/p&gt;" style="verticalAlign=top;align=left;overflow=fill;fontSize=14;fontFamily=Helvetica;html=1;rounded=0;shadow=0;comic=0;labelBackgroundColor=none;strokeWidth=1;" parent="1" vertex="1">
          <mxGeometry x="-1740" y="2210" width="245" height="315" as="geometry" />
        </mxCell>
        <mxCell id="node7" value="&lt;p style=&quot;margin:0px;margin-top:4px;text-align:center;&quot;&gt;&lt;b&gt;Main&lt;/b&gt;&lt;/p&gt;&lt;hr size=&quot;1&quot;/&gt;&lt;p style=&quot;margin:0 0 0 4px;line-height:1.6;&quot;&gt;+ main(String[]): void&lt;br/&gt;+ start(Stage): void&lt;/p&gt;" style="verticalAlign=top;align=left;overflow=fill;fontSize=14;fontFamily=Helvetica;html=1;rounded=0;shadow=0;comic=0;labelBackgroundColor=none;strokeWidth=1;" parent="1" vertex="1">
          <mxGeometry x="-2810.5" y="2783" width="152" height="97" as="geometry" />
        </mxCell>
        <mxCell id="n7cuw4-B28qV0KOe3FSm-72" style="edgeStyle=orthogonalEdgeStyle;rounded=0;orthogonalLoop=1;jettySize=auto;html=1;entryX=1;entryY=0.5;entryDx=0;entryDy=0;" edge="1" parent="1" source="node9" target="n7cuw4-B28qV0KOe3FSm-26">
          <mxGeometry relative="1" as="geometry">
            <Array as="points">
              <mxPoint x="-1790" y="1844" />
              <mxPoint x="-1790" y="2461" />
            </Array>
          </mxGeometry>
        </mxCell>
        <mxCell id="n7cuw4-B28qV0KOe3FSm-84" style="edgeStyle=orthogonalEdgeStyle;rounded=0;orthogonalLoop=1;jettySize=auto;html=1;entryX=0.5;entryY=0;entryDx=0;entryDy=0;" edge="1" parent="1" source="node9" target="n7cuw4-B28qV0KOe3FSm-24">
          <mxGeometry relative="1" as="geometry">
            <Array as="points">
              <mxPoint x="-1632" y="1440" />
              <mxPoint x="-2340" y="1440" />
            </Array>
          </mxGeometry>
        </mxCell>
        <mxCell id="node9" value="&lt;p style=&quot;margin:0px;margin-top:4px;text-align:center;&quot;&gt;&lt;b&gt;MainGUIController&lt;/b&gt;&lt;/p&gt;&lt;hr size=&quot;1&quot;/&gt;&lt;p style=&quot;margin:0 0 0 4px;line-height:1.6;&quot;&gt;~ service: PizzaService&lt;br/&gt;- help: MenuItem&lt;br/&gt;~ table4Orders: OrdersGUI&lt;br/&gt;~ table2Orders: OrdersGUI&lt;br/&gt;- table3: Button&lt;br/&gt;~ table7Orders: OrdersGUI&lt;br/&gt;- table4: Button&lt;br/&gt;- table1: Button&lt;br/&gt;- table2: Button&lt;br/&gt;~ table1Orders: OrdersGUI&lt;br/&gt;~ table3Orders: OrdersGUI&lt;br/&gt;- table6: Button&lt;br/&gt;~ table5Orders: OrdersGUI&lt;br/&gt;- table7: Button&lt;br/&gt;- table8: Button&lt;br/&gt;- table5: Button&lt;br/&gt;~ table8Orders: OrdersGUI&lt;br/&gt;~ table6Orders: OrdersGUI&lt;/p&gt;&lt;hr size=&quot;1&quot;/&gt;&lt;p style=&quot;margin:0 0 0 4px;line-height:1.6;&quot;&gt;+ initialize(): void&lt;br/&gt;- tableHandlers(): void&lt;br/&gt;+ setService(PizzaService): void&lt;/p&gt;" style="verticalAlign=top;align=left;overflow=fill;fontSize=14;fontFamily=Helvetica;html=1;rounded=0;shadow=0;comic=0;labelBackgroundColor=none;strokeWidth=1;" parent="1" vertex="1">
          <mxGeometry x="-1740" y="1532" width="216" height="623" as="geometry" />
        </mxCell>
        <mxCell id="node13" value="&lt;p style=&quot;margin:0px;margin-top:4px;text-align:center;&quot;&gt;&lt;b&gt;MenuDataModel&lt;/b&gt;&lt;/p&gt;&lt;hr size=&quot;1&quot;/&gt;&lt;p style=&quot;margin:0 0 0 4px;line-height:1.6;&quot;&gt;- price: SimpleDoubleProperty&lt;br/&gt;- menuItem: SimpleStringProperty&lt;br/&gt;- quantity: SimpleIntegerProperty&lt;/p&gt;&lt;hr size=&quot;1&quot;/&gt;&lt;p style=&quot;margin:0 0 0 4px;line-height:1.6;&quot;&gt;+ menuItemProperty(): SimpleStringProperty&lt;br/&gt;+ setMenuItem(String): void&lt;br/&gt;+ getQuantity(): Integer&lt;br/&gt;+ setQuantity(Integer): void&lt;br/&gt;+ setPrice(Double): void&lt;br/&gt;+ getMenuItem(): String&lt;br/&gt;+ quantityProperty(): SimpleIntegerProperty&lt;br/&gt;+ getPrice(): Double&lt;br/&gt;+ priceProperty(): SimpleDoubleProperty&lt;/p&gt;" style="verticalAlign=top;align=left;overflow=fill;fontSize=14;fontFamily=Helvetica;html=1;rounded=0;shadow=0;comic=0;labelBackgroundColor=none;strokeWidth=1;" parent="1" vertex="1">
          <mxGeometry x="-1340" y="2872" width="281" height="371" as="geometry" />
        </mxCell>
        <mxCell id="n7cuw4-B28qV0KOe3FSm-10" value="Implements" style="edgeStyle=orthogonalEdgeStyle;rounded=0;orthogonalLoop=1;jettySize=auto;html=1;exitX=0.5;exitY=1;exitDx=0;exitDy=0;dashed=1;" edge="1" parent="1" source="node2" target="n7cuw4-B28qV0KOe3FSm-8">
          <mxGeometry relative="1" as="geometry" />
        </mxCell>
        <mxCell id="node2" value="&lt;p style=&quot;margin:0px;margin-top:4px;text-align:center;&quot;&gt;&lt;b&gt;MenuRepository&lt;/b&gt;&lt;/p&gt;&lt;hr size=&quot;1&quot;/&gt;&lt;p style=&quot;margin:0 0 0 4px;line-height:1.6;&quot;&gt;- filename: String&lt;br/&gt;- listMenu: List&amp;lt;MenuDataModel&amp;gt;&lt;/p&gt;&lt;hr size=&quot;1&quot;/&gt;&lt;p style=&quot;margin:0 0 0 4px;line-height:1.6;&quot;&gt;- getMenuItem(String): MenuDataModel?&lt;br/&gt;+ getMenu(): List&amp;lt;MenuDataModel&amp;gt;&lt;br/&gt;- readMenu(): void&lt;/p&gt;" style="verticalAlign=top;align=left;overflow=fill;fontSize=14;fontFamily=Helvetica;html=1;rounded=0;shadow=0;comic=0;labelBackgroundColor=none;strokeWidth=1;" parent="1" vertex="1">
          <mxGeometry x="-2510.5" y="1873" width="264" height="175" as="geometry" />
        </mxCell>
        <mxCell id="node4" value="&lt;p style=&quot;margin:0px;margin-top:4px;text-align:center;&quot;&gt;&lt;b&gt;OrdersGUI&lt;/b&gt;&lt;/p&gt;&lt;hr size=&quot;1&quot;/&gt;&lt;p style=&quot;margin:0 0 0 4px;line-height:1.6;&quot;&gt;- service: PizzaService&lt;br/&gt;# tableNumber: int&lt;/p&gt;&lt;hr size=&quot;1&quot;/&gt;&lt;p style=&quot;margin:0 0 0 4px;line-height:1.6;&quot;&gt;+ displayOrdersForm(PizzaService): void&lt;br/&gt;+ setTableNumber(int): void&lt;br/&gt;+ getTableNumber(): int&lt;/p&gt;" style="verticalAlign=top;align=left;overflow=fill;fontSize=14;fontFamily=Helvetica;html=1;rounded=0;shadow=0;comic=0;labelBackgroundColor=none;strokeWidth=1;" parent="1" vertex="1">
          <mxGeometry x="-1461" y="1980" width="264" height="175" as="geometry" />
        </mxCell>
        <mxCell id="n7cuw4-B28qV0KOe3FSm-71" style="edgeStyle=orthogonalEdgeStyle;rounded=0;orthogonalLoop=1;jettySize=auto;html=1;" edge="1" parent="1" source="node3" target="n7cuw4-B28qV0KOe3FSm-26">
          <mxGeometry relative="1" as="geometry" />
        </mxCell>
        <mxCell id="n7cuw4-B28qV0KOe3FSm-85" style="edgeStyle=orthogonalEdgeStyle;rounded=0;orthogonalLoop=1;jettySize=auto;html=1;" edge="1" parent="1" source="node3">
          <mxGeometry relative="1" as="geometry">
            <mxPoint x="-2340" y="1530" as="targetPoint" />
            <Array as="points">
              <mxPoint x="-1969" y="1500" />
              <mxPoint x="-2339" y="1500" />
              <mxPoint x="-2339" y="1530" />
            </Array>
          </mxGeometry>
        </mxCell>
        <mxCell id="node3" value="&lt;p style=&quot;margin:0px;margin-top:4px;text-align:center;&quot;&gt;&lt;b&gt;OrdersGUIController&lt;/b&gt;&lt;/p&gt;&lt;hr size=&quot;1&quot;/&gt;&lt;p style=&quot;margin:0 0 0 4px;line-height:1.6;&quot;&gt;- orderQuantity: ComboBox&amp;lt;Integer&amp;gt;&lt;br/&gt;- orderTable: TableView&lt;br/&gt;- table: TableView&amp;lt;MenuDataModel&amp;gt;&lt;br/&gt;- orderServed: Button&lt;br/&gt;- orderPaymentList: List&amp;lt;Double&amp;gt;&lt;br/&gt;- placeOrder: Button&lt;br/&gt;- menuData: ObservableList&amp;lt;MenuDataModel&amp;gt;&lt;br/&gt;- totalAmount: double&lt;br/&gt;- tablePrice: TableColumn&lt;br/&gt;+ observableList: ObservableList&amp;lt;String&amp;gt;&lt;br/&gt;- pizzaTypeLabel: Label&lt;br/&gt;- newOrder: Button&lt;br/&gt;# tableMenuItem: TableColumn&lt;br/&gt;- tableNumber: int&lt;br/&gt;- tableQuantity: TableColumn&lt;br/&gt;- now: Calendar&lt;br/&gt;- orderStatus: Label&lt;br/&gt;- orderList: List&amp;lt;String&amp;gt;&lt;br/&gt;- service: PizzaService&lt;br/&gt;- payOrder: Button&lt;br/&gt;- addToOrder: Button&lt;/p&gt;&lt;hr size=&quot;1&quot;/&gt;&lt;p style=&quot;margin:0 0 0 4px;line-height:1.6;&quot;&gt;+ getTotalAmount(): double&lt;br/&gt;+ setService(PizzaService, int): void&lt;br/&gt;+ initialize(): void&lt;br/&gt;+ setTotalAmount(double): void&lt;br/&gt;- initData(): void&lt;/p&gt;" style="verticalAlign=top;align=left;overflow=fill;fontSize=14;fontFamily=Helvetica;html=1;rounded=0;shadow=0;comic=0;labelBackgroundColor=none;strokeWidth=1;" parent="1" vertex="1">
          <mxGeometry x="-2120" y="1532" width="302" height="763" as="geometry" />
        </mxCell>
        <mxCell id="node10" value="&lt;p style=&quot;margin:0px;margin-top:4px;text-align:center;&quot;&gt;&lt;b&gt;Payment&lt;/b&gt;&lt;/p&gt;&lt;hr size=&quot;1&quot;/&gt;&lt;p style=&quot;margin:0 0 0 4px;line-height:1.6;&quot;&gt;- tableNumber: int&lt;br/&gt;- type: PaymentType&lt;br/&gt;- amount: double&lt;/p&gt;&lt;hr size=&quot;1&quot;/&gt;&lt;p style=&quot;margin:0 0 0 4px;line-height:1.6;&quot;&gt;+ toString(): String&lt;br/&gt;+ setTableNumber(int): void&lt;br/&gt;+ getAmount(): double&lt;br/&gt;+ getType(): PaymentType&lt;br/&gt;+ getTableNumber(): int&lt;br/&gt;+ setType(PaymentType): void&lt;br/&gt;+ setAmount(double): void&lt;/p&gt;" style="verticalAlign=top;align=left;overflow=fill;fontSize=14;fontFamily=Helvetica;html=1;rounded=0;shadow=0;comic=0;labelBackgroundColor=none;strokeWidth=1;" parent="1" vertex="1">
          <mxGeometry x="-1880" y="2900" width="204" height="315" as="geometry" />
        </mxCell>
        <mxCell id="n7cuw4-B28qV0KOe3FSm-92" style="edgeStyle=orthogonalEdgeStyle;rounded=0;orthogonalLoop=1;jettySize=auto;html=1;entryX=0.5;entryY=1;entryDx=0;entryDy=0;" edge="1" parent="1" source="node12" target="n7cuw4-B28qV0KOe3FSm-35">
          <mxGeometry relative="1" as="geometry" />
        </mxCell>
        <mxCell id="node12" value="&lt;p style=&quot;margin:0px;margin-top:4px;text-align:center;&quot;&gt;&lt;b&gt;PaymentAlert&lt;/b&gt;&lt;/p&gt;&lt;hr size=&quot;1&quot;/&gt;&lt;p style=&quot;margin:0 0 0 4px;line-height:1.6;&quot;&gt;- service: PizzaService&lt;/p&gt;&lt;hr size=&quot;1&quot;/&gt;&lt;p style=&quot;margin:0 0 0 4px;line-height:1.6;&quot;&gt;+ cashPayment(): void&lt;br/&gt;+ showPaymentAlert(int, double): void&lt;br/&gt;+ cancelPayment(): void&lt;br/&gt;+ cardPayment(): void&lt;/p&gt;" style="verticalAlign=top;align=left;overflow=fill;fontSize=14;fontFamily=Helvetica;html=1;rounded=0;shadow=0;comic=0;labelBackgroundColor=none;strokeWidth=1;" parent="1" vertex="1">
          <mxGeometry x="-3010" y="2950" width="247" height="175" as="geometry" />
        </mxCell>
        <mxCell id="node6" value="&lt;p style=&quot;margin:0px;margin-top:4px;text-align:center;&quot;&gt;&lt;i&gt;&amp;lt;&amp;lt;interface&amp;gt;&amp;gt;&lt;/i&gt;&lt;br/&gt;&lt;b&gt;PaymentOperation&lt;/b&gt;&lt;/p&gt;&lt;hr size=&quot;1&quot;/&gt;&lt;p style=&quot;margin:0 0 0 4px;line-height:1.6;&quot;&gt;+ cardPayment(): void&lt;br/&gt;+ cashPayment(): void&lt;br/&gt;+ cancelPayment(): void&lt;/p&gt;" style="verticalAlign=top;align=left;overflow=fill;fontSize=14;fontFamily=Helvetica;html=1;rounded=0;shadow=0;comic=0;labelBackgroundColor=none;strokeWidth=1;" parent="1" vertex="1">
          <mxGeometry x="-2658.5" y="2950" width="187" height="157.5" as="geometry" />
        </mxCell>
        <mxCell id="n7cuw4-B28qV0KOe3FSm-11" value="Implements" style="edgeStyle=orthogonalEdgeStyle;rounded=0;orthogonalLoop=1;jettySize=auto;html=1;dashed=1;" edge="1" parent="1" source="node8" target="n7cuw4-B28qV0KOe3FSm-9">
          <mxGeometry relative="1" as="geometry" />
        </mxCell>
        <mxCell id="node8" value="&lt;p style=&quot;margin:0px;margin-top:4px;text-align:center;&quot;&gt;&lt;b&gt;PaymentRepository&lt;/b&gt;&lt;/p&gt;&lt;hr size=&quot;1&quot;/&gt;&lt;p style=&quot;margin:0 0 0 4px;line-height:1.6;&quot;&gt;- filename: String&lt;br/&gt;- paymentList: List&amp;lt;Payment&amp;gt;&lt;/p&gt;&lt;hr size=&quot;1&quot;/&gt;&lt;p style=&quot;margin:0 0 0 4px;line-height:1.6;&quot;&gt;- readPayments(): void&lt;br/&gt;+ add(Payment): void&lt;br/&gt;+ writeAll(): void&lt;br/&gt;- getPayment(String): Payment?&lt;br/&gt;+ getAll(): List&amp;lt;Payment&amp;gt;&lt;/p&gt;" style="verticalAlign=top;align=left;overflow=fill;fontSize=14;fontFamily=Helvetica;html=1;rounded=0;shadow=0;comic=0;labelBackgroundColor=none;strokeWidth=1;" parent="1" vertex="1">
          <mxGeometry x="-2810.5" y="1845" width="217" height="231" as="geometry" />
        </mxCell>
        <mxCell id="node1" value="&lt;p style=&quot;margin:0px;margin-top:4px;text-align:center;&quot;&gt;&lt;i&gt;&amp;lt;&amp;lt;enumeration&amp;gt;&amp;gt;&lt;/i&gt;&lt;br/&gt;&lt;b&gt;PaymentType&lt;/b&gt;&lt;/p&gt;&lt;hr size=&quot;1&quot;/&gt;&lt;p style=&quot;margin:0 0 0 4px;line-height:1.6;&quot;&gt;+ Cash: &lt;br/&gt;+ Card: &lt;/p&gt;&lt;hr size=&quot;1&quot;/&gt;&lt;p style=&quot;margin:0 0 0 4px;line-height:1.6;&quot;&gt;+ values(): PaymentType[]&lt;br/&gt;+ valueOf(String): PaymentType&lt;/p&gt;" style="verticalAlign=top;align=left;overflow=fill;fontSize=14;fontFamily=Helvetica;html=1;rounded=0;shadow=0;comic=0;labelBackgroundColor=none;strokeWidth=1;" parent="1" vertex="1">
          <mxGeometry x="-2270" y="2955.25" width="215" height="147" as="geometry" />
        </mxCell>
        <mxCell id="edge0" value="" style="html=1;rounded=1;edgeStyle=orthogonalEdgeStyle;dashed=1;startArrow=none;endArrow=block;endSize=12;strokeColor=#008200;exitX=0.500;exitY=0.000;exitDx=0;exitDy=0;entryX=0.500;entryY=1.000;entryDx=0;entryDy=0;" parent="1" source="node12" target="node6" edge="1">
          <mxGeometry width="50" height="50" relative="1" as="geometry">
            <Array as="points" />
          </mxGeometry>
        </mxCell>
        <mxCell id="n7cuw4-B28qV0KOe3FSm-8" value="«interface»&lt;br&gt;&lt;b&gt;IMenuRepository&lt;/b&gt;" style="html=1;whiteSpace=wrap;" vertex="1" parent="1">
          <mxGeometry x="-2508.5" y="2103" width="262" height="165" as="geometry" />
        </mxCell>
        <mxCell id="n7cuw4-B28qV0KOe3FSm-9" value="«interface»&lt;br&gt;&lt;b&gt;IPaymentRepository&lt;/b&gt;" style="html=1;whiteSpace=wrap;" vertex="1" parent="1">
          <mxGeometry x="-2830" y="2140" width="256" height="150" as="geometry" />
        </mxCell>
        <mxCell id="n7cuw4-B28qV0KOe3FSm-63" style="edgeStyle=orthogonalEdgeStyle;rounded=0;orthogonalLoop=1;jettySize=auto;html=1;entryX=0.5;entryY=1;entryDx=0;entryDy=0;" edge="1" parent="1" source="n7cuw4-B28qV0KOe3FSm-21" target="n7cuw4-B28qV0KOe3FSm-8">
          <mxGeometry relative="1" as="geometry" />
        </mxCell>
        <mxCell id="n7cuw4-B28qV0KOe3FSm-21" value="&lt;p style=&quot;margin:0px;margin-top:4px;text-align:center;&quot;&gt;&lt;b&gt;MenuService&lt;/b&gt;&lt;/p&gt;&lt;hr size=&quot;1&quot; style=&quot;border-style:solid;&quot;&gt;&lt;p style=&quot;margin:0px;margin-left:4px;&quot;&gt;+ field: Type&lt;/p&gt;&lt;hr size=&quot;1&quot; style=&quot;border-style:solid;&quot;&gt;&lt;p style=&quot;margin:0px;margin-left:4px;&quot;&gt;+ method(): Type&lt;/p&gt;" style="verticalAlign=top;align=left;overflow=fill;html=1;whiteSpace=wrap;" vertex="1" parent="1">
          <mxGeometry x="-2490" y="2377" width="160" height="90" as="geometry" />
        </mxCell>
        <mxCell id="n7cuw4-B28qV0KOe3FSm-22" value="&lt;p style=&quot;margin:0px;margin-top:4px;text-align:center;&quot;&gt;&lt;b&gt;ThreadManager&lt;/b&gt;&lt;/p&gt;&lt;hr size=&quot;1&quot; style=&quot;border-style:solid;&quot;&gt;&lt;p style=&quot;margin:0px;margin-left:4px;&quot;&gt;+ field: Type&lt;/p&gt;&lt;hr size=&quot;1&quot; style=&quot;border-style:solid;&quot;&gt;&lt;p style=&quot;margin:0px;margin-left:4px;&quot;&gt;+ method(): Type&lt;/p&gt;" style="verticalAlign=top;align=left;overflow=fill;html=1;whiteSpace=wrap;" vertex="1" parent="1">
          <mxGeometry x="-2410" y="2796" width="160" height="90" as="geometry" />
        </mxCell>
        <mxCell id="n7cuw4-B28qV0KOe3FSm-64" style="edgeStyle=orthogonalEdgeStyle;rounded=0;orthogonalLoop=1;jettySize=auto;html=1;" edge="1" parent="1" source="n7cuw4-B28qV0KOe3FSm-23" target="n7cuw4-B28qV0KOe3FSm-9">
          <mxGeometry relative="1" as="geometry" />
        </mxCell>
        <mxCell id="n7cuw4-B28qV0KOe3FSm-91" style="edgeStyle=orthogonalEdgeStyle;rounded=0;orthogonalLoop=1;jettySize=auto;html=1;entryX=0;entryY=0.5;entryDx=0;entryDy=0;" edge="1" parent="1" source="n7cuw4-B28qV0KOe3FSm-23" target="node10">
          <mxGeometry relative="1" as="geometry">
            <Array as="points">
              <mxPoint x="-2630" y="2580" />
              <mxPoint x="-1900" y="2580" />
              <mxPoint x="-1900" y="3058" />
            </Array>
          </mxGeometry>
        </mxCell>
        <mxCell id="n7cuw4-B28qV0KOe3FSm-23" value="&lt;p style=&quot;margin:0px;margin-top:4px;text-align:center;&quot;&gt;&lt;b&gt;PaymentService&lt;/b&gt;&lt;/p&gt;&lt;hr size=&quot;1&quot; style=&quot;border-style:solid;&quot;&gt;&lt;p style=&quot;margin:0px;margin-left:4px;&quot;&gt;+ field: Type&lt;/p&gt;&lt;hr size=&quot;1&quot; style=&quot;border-style:solid;&quot;&gt;&lt;p style=&quot;margin:0px;margin-left:4px;&quot;&gt;+ method(): Type&lt;/p&gt;" style="verticalAlign=top;align=left;overflow=fill;html=1;whiteSpace=wrap;" vertex="1" parent="1">
          <mxGeometry x="-2690" y="2423" width="160" height="90" as="geometry" />
        </mxCell>
        <mxCell id="n7cuw4-B28qV0KOe3FSm-24" value="&lt;p style=&quot;margin:0px;margin-top:4px;text-align:center;&quot;&gt;&lt;b&gt;ErrorHandler&lt;/b&gt;&lt;/p&gt;&lt;hr size=&quot;1&quot; style=&quot;border-style:solid;&quot;&gt;&lt;p style=&quot;margin:0px;margin-left:4px;&quot;&gt;+ field: Type&lt;/p&gt;&lt;hr size=&quot;1&quot; style=&quot;border-style:solid;&quot;&gt;&lt;p style=&quot;margin:0px;margin-left:4px;&quot;&gt;+ method(): Type&lt;/p&gt;" style="verticalAlign=top;align=left;overflow=fill;html=1;whiteSpace=wrap;" vertex="1" parent="1">
          <mxGeometry x="-2420" y="1532" width="160" height="90" as="geometry" />
        </mxCell>
        <mxCell id="n7cuw4-B28qV0KOe3FSm-65" style="edgeStyle=orthogonalEdgeStyle;rounded=0;orthogonalLoop=1;jettySize=auto;html=1;" edge="1" parent="1" source="n7cuw4-B28qV0KOe3FSm-25" target="n7cuw4-B28qV0KOe3FSm-9">
          <mxGeometry relative="1" as="geometry" />
        </mxCell>
        <mxCell id="n7cuw4-B28qV0KOe3FSm-25" value="&lt;p style=&quot;margin:0px;margin-top:4px;text-align:center;&quot;&gt;&lt;b&gt;ReportingService&lt;/b&gt;&lt;/p&gt;&lt;hr size=&quot;1&quot; style=&quot;border-style:solid;&quot;&gt;&lt;p style=&quot;margin:0px;margin-left:4px;&quot;&gt;+ field: Type&lt;/p&gt;&lt;hr size=&quot;1&quot; style=&quot;border-style:solid;&quot;&gt;&lt;p style=&quot;margin:0px;margin-left:4px;&quot;&gt;+ method(): Type&lt;/p&gt;" style="verticalAlign=top;align=left;overflow=fill;html=1;whiteSpace=wrap;" vertex="1" parent="1">
          <mxGeometry x="-2880" y="2377" width="160" height="90" as="geometry" />
        </mxCell>
        <mxCell id="n7cuw4-B28qV0KOe3FSm-66" style="edgeStyle=orthogonalEdgeStyle;rounded=0;orthogonalLoop=1;jettySize=auto;html=1;" edge="1" parent="1" source="n7cuw4-B28qV0KOe3FSm-26" target="n7cuw4-B28qV0KOe3FSm-8">
          <mxGeometry relative="1" as="geometry" />
        </mxCell>
        <mxCell id="n7cuw4-B28qV0KOe3FSm-82" style="edgeStyle=orthogonalEdgeStyle;rounded=0;orthogonalLoop=1;jettySize=auto;html=1;" edge="1" parent="1" source="n7cuw4-B28qV0KOe3FSm-26" target="n7cuw4-B28qV0KOe3FSm-80">
          <mxGeometry relative="1" as="geometry">
            <mxPoint x="-2140" y="2581" as="sourcePoint" />
            <mxPoint x="-1329" y="2380" as="targetPoint" />
            <Array as="points">
              <mxPoint x="-2150" y="2600" />
              <mxPoint x="-1329" y="2600" />
            </Array>
          </mxGeometry>
        </mxCell>
        <mxCell id="n7cuw4-B28qV0KOe3FSm-89" style="edgeStyle=orthogonalEdgeStyle;rounded=0;orthogonalLoop=1;jettySize=auto;html=1;" edge="1" parent="1" source="n7cuw4-B28qV0KOe3FSm-26" target="n7cuw4-B28qV0KOe3FSm-33">
          <mxGeometry relative="1" as="geometry">
            <Array as="points">
              <mxPoint x="-2180" y="2640" />
              <mxPoint x="-1570" y="2640" />
              <mxPoint x="-1570" y="2741" />
            </Array>
          </mxGeometry>
        </mxCell>
        <mxCell id="n7cuw4-B28qV0KOe3FSm-26" value="&lt;p style=&quot;margin:0px;margin-top:4px;text-align:center;&quot;&gt;&lt;b&gt;OrderService&lt;/b&gt;&lt;/p&gt;&lt;hr size=&quot;1&quot; style=&quot;border-style:solid;&quot;&gt;&lt;p style=&quot;margin:0px;margin-left:4px;&quot;&gt;+ field: Type&lt;/p&gt;&lt;hr size=&quot;1&quot; style=&quot;border-style:solid;&quot;&gt;&lt;p style=&quot;margin:0px;margin-left:4px;&quot;&gt;+ method(): Type&lt;/p&gt;" style="verticalAlign=top;align=left;overflow=fill;html=1;whiteSpace=wrap;" vertex="1" parent="1">
          <mxGeometry x="-2300" y="2416" width="160" height="90" as="geometry" />
        </mxCell>
        <mxCell id="n7cuw4-B28qV0KOe3FSm-67" style="edgeStyle=orthogonalEdgeStyle;rounded=0;orthogonalLoop=1;jettySize=auto;html=1;" edge="1" parent="1" source="n7cuw4-B28qV0KOe3FSm-27" target="n7cuw4-B28qV0KOe3FSm-26">
          <mxGeometry relative="1" as="geometry" />
        </mxCell>
        <mxCell id="n7cuw4-B28qV0KOe3FSm-68" style="edgeStyle=orthogonalEdgeStyle;rounded=0;orthogonalLoop=1;jettySize=auto;html=1;" edge="1" parent="1" source="n7cuw4-B28qV0KOe3FSm-27" target="n7cuw4-B28qV0KOe3FSm-21">
          <mxGeometry relative="1" as="geometry" />
        </mxCell>
        <mxCell id="n7cuw4-B28qV0KOe3FSm-69" style="edgeStyle=orthogonalEdgeStyle;rounded=0;orthogonalLoop=1;jettySize=auto;html=1;" edge="1" parent="1" source="n7cuw4-B28qV0KOe3FSm-27" target="n7cuw4-B28qV0KOe3FSm-23">
          <mxGeometry relative="1" as="geometry" />
        </mxCell>
        <mxCell id="n7cuw4-B28qV0KOe3FSm-70" style="edgeStyle=orthogonalEdgeStyle;rounded=0;orthogonalLoop=1;jettySize=auto;html=1;" edge="1" parent="1" source="n7cuw4-B28qV0KOe3FSm-27" target="n7cuw4-B28qV0KOe3FSm-25">
          <mxGeometry relative="1" as="geometry" />
        </mxCell>
        <mxCell id="n7cuw4-B28qV0KOe3FSm-87" style="edgeStyle=orthogonalEdgeStyle;rounded=0;orthogonalLoop=1;jettySize=auto;html=1;entryX=0;entryY=0.5;entryDx=0;entryDy=0;" edge="1" parent="1" source="n7cuw4-B28qV0KOe3FSm-27" target="n7cuw4-B28qV0KOe3FSm-22">
          <mxGeometry relative="1" as="geometry">
            <Array as="points">
              <mxPoint x="-2510" y="2841" />
            </Array>
          </mxGeometry>
        </mxCell>
        <mxCell id="n7cuw4-B28qV0KOe3FSm-27" value="&lt;p style=&quot;margin:0px;margin-top:4px;text-align:center;&quot;&gt;&lt;b&gt;ApplicationContext&lt;/b&gt;&lt;/p&gt;&lt;hr size=&quot;1&quot; style=&quot;border-style:solid;&quot;&gt;&lt;p style=&quot;margin:0px;margin-left:4px;&quot;&gt;+ field: Type&lt;/p&gt;&lt;hr size=&quot;1&quot; style=&quot;border-style:solid;&quot;&gt;&lt;p style=&quot;margin:0px;margin-left:4px;&quot;&gt;+ method(): Type&lt;/p&gt;" style="verticalAlign=top;align=left;overflow=fill;html=1;whiteSpace=wrap;" vertex="1" parent="1">
          <mxGeometry x="-2590" y="2596" width="160" height="90" as="geometry" />
        </mxCell>
        <mxCell id="n7cuw4-B28qV0KOe3FSm-78" style="edgeStyle=orthogonalEdgeStyle;rounded=0;orthogonalLoop=1;jettySize=auto;html=1;" edge="1" parent="1" source="n7cuw4-B28qV0KOe3FSm-32" target="node13">
          <mxGeometry relative="1" as="geometry" />
        </mxCell>
        <mxCell id="n7cuw4-B28qV0KOe3FSm-32" value="&lt;p style=&quot;margin:0px;margin-top:4px;text-align:center;&quot;&gt;&lt;b&gt;OrderItem&lt;/b&gt;&lt;/p&gt;&lt;hr size=&quot;1&quot; style=&quot;border-style:solid;&quot;&gt;&lt;div style=&quot;height:2px;&quot;&gt;&lt;/div&gt;- menuItem: MenuDataModel&lt;div&gt;- quantity: int&lt;/div&gt;&lt;div&gt;- price: double&lt;br&gt;&lt;hr size=&quot;1&quot; style=&quot;border-style:solid;&quot;&gt;&lt;div style=&quot;height:2px;&quot;&gt;&lt;/div&gt;&lt;div style=&quot;height:2px;&quot;&gt;&lt;br&gt;&lt;/div&gt;&lt;/div&gt;" style="verticalAlign=top;align=left;overflow=fill;html=1;whiteSpace=wrap;" vertex="1" parent="1">
          <mxGeometry x="-1400" y="2686" width="170" height="110" as="geometry" />
        </mxCell>
        <mxCell id="n7cuw4-B28qV0KOe3FSm-76" style="edgeStyle=orthogonalEdgeStyle;rounded=0;orthogonalLoop=1;jettySize=auto;html=1;" edge="1" parent="1" source="n7cuw4-B28qV0KOe3FSm-33" target="n7cuw4-B28qV0KOe3FSm-32">
          <mxGeometry relative="1" as="geometry">
            <Array as="points">
              <mxPoint x="-1550" y="2760" />
              <mxPoint x="-1550" y="2760" />
            </Array>
          </mxGeometry>
        </mxCell>
        <mxCell id="n7cuw4-B28qV0KOe3FSm-77" style="edgeStyle=orthogonalEdgeStyle;rounded=0;orthogonalLoop=1;jettySize=auto;html=1;" edge="1" parent="1" source="n7cuw4-B28qV0KOe3FSm-33">
          <mxGeometry relative="1" as="geometry">
            <mxPoint x="-1584" y="2930" as="targetPoint" />
            <Array as="points">
              <mxPoint x="-1590" y="2770" />
              <mxPoint x="-1590" y="2871" />
              <mxPoint x="-1584" y="2871" />
            </Array>
          </mxGeometry>
        </mxCell>
        <mxCell id="n7cuw4-B28qV0KOe3FSm-79" style="edgeStyle=orthogonalEdgeStyle;rounded=0;orthogonalLoop=1;jettySize=auto;html=1;" edge="1" parent="1" source="n7cuw4-B28qV0KOe3FSm-33" target="node10">
          <mxGeometry relative="1" as="geometry" />
        </mxCell>
        <mxCell id="n7cuw4-B28qV0KOe3FSm-33" value="&lt;p style=&quot;margin:0px;margin-top:4px;text-align:center;&quot;&gt;&lt;b&gt;Order&lt;/b&gt;&lt;/p&gt;&lt;hr size=&quot;1&quot; style=&quot;border-style:solid;&quot;&gt;- tableNumer: int&lt;div&gt;- items: List&amp;lt;OrderItem&amp;gt;&lt;/div&gt;&lt;div&gt;- status: OrderStatus&lt;/div&gt;&lt;div&gt;- timestamp: Date&lt;br&gt;&lt;div style=&quot;height:2px;&quot;&gt;&lt;/div&gt;&lt;hr size=&quot;1&quot; style=&quot;border-style:solid;&quot;&gt;&lt;div style=&quot;height:2px;&quot;&gt;&lt;/div&gt;&lt;/div&gt;" style="verticalAlign=top;align=left;overflow=fill;html=1;whiteSpace=wrap;" vertex="1" parent="1">
          <mxGeometry x="-1848" y="2686" width="140" height="110" as="geometry" />
        </mxCell>
        <mxCell id="n7cuw4-B28qV0KOe3FSm-90" style="edgeStyle=orthogonalEdgeStyle;rounded=0;orthogonalLoop=1;jettySize=auto;html=1;exitX=1;exitY=0.5;exitDx=0;exitDy=0;entryX=0.25;entryY=1;entryDx=0;entryDy=0;" edge="1" parent="1" source="n7cuw4-B28qV0KOe3FSm-34" target="n7cuw4-B28qV0KOe3FSm-23">
          <mxGeometry relative="1" as="geometry" />
        </mxCell>
        <mxCell id="n7cuw4-B28qV0KOe3FSm-34" value="&lt;p style=&quot;margin:0px;margin-top:4px;text-align:center;&quot;&gt;&lt;b&gt;PaymentProcessor&lt;/b&gt;&lt;/p&gt;&lt;hr size=&quot;1&quot; style=&quot;border-style:solid;&quot;&gt;&lt;p style=&quot;margin:0px;margin-left:4px;&quot;&gt;+ field: Type&lt;/p&gt;&lt;hr size=&quot;1&quot; style=&quot;border-style:solid;&quot;&gt;&lt;p style=&quot;margin:0px;margin-left:4px;&quot;&gt;+ method(): Type&lt;/p&gt;" style="verticalAlign=top;align=left;overflow=fill;html=1;whiteSpace=wrap;" vertex="1" parent="1">
          <mxGeometry x="-3100" y="2560" width="160" height="90" as="geometry" />
        </mxCell>
        <mxCell id="n7cuw4-B28qV0KOe3FSm-74" style="edgeStyle=orthogonalEdgeStyle;rounded=0;orthogonalLoop=1;jettySize=auto;html=1;" edge="1" parent="1" source="n7cuw4-B28qV0KOe3FSm-35" target="n7cuw4-B28qV0KOe3FSm-34">
          <mxGeometry relative="1" as="geometry" />
        </mxCell>
        <mxCell id="n7cuw4-B28qV0KOe3FSm-35" value="&lt;p style=&quot;margin:0px;margin-top:4px;text-align:center;&quot;&gt;&lt;b&gt;PaymentDialogService&lt;/b&gt;&lt;/p&gt;&lt;hr size=&quot;1&quot; style=&quot;border-style:solid;&quot;&gt;&lt;p style=&quot;margin:0px;margin-left:4px;&quot;&gt;+ field: Type&lt;/p&gt;&lt;hr size=&quot;1&quot; style=&quot;border-style:solid;&quot;&gt;&lt;p style=&quot;margin:0px;margin-left:4px;&quot;&gt;+ method(): Type&lt;/p&gt;" style="verticalAlign=top;align=left;overflow=fill;html=1;whiteSpace=wrap;" vertex="1" parent="1">
          <mxGeometry x="-3100" y="2720" width="160" height="90" as="geometry" />
        </mxCell>
        <mxCell id="n7cuw4-B28qV0KOe3FSm-36" value="" style="fontStyle=1;align=center;verticalAlign=middle;childLayout=stackLayout;horizontal=1;horizontalStack=0;resizeParent=1;resizeParentMax=0;resizeLast=0;marginBottom=0;" vertex="1" parent="1">
          <mxGeometry x="-1584" y="2935.75" width="200" height="186" as="geometry" />
        </mxCell>
        <mxCell id="n7cuw4-B28qV0KOe3FSm-37" value="&amp;lt;&amp;lt;enumeration&amp;gt;&amp;gt;" style="html=1;align=center;spacing=0;verticalAlign=middle;strokeColor=none;fillColor=none;whiteSpace=wrap;" vertex="1" parent="n7cuw4-B28qV0KOe3FSm-36">
          <mxGeometry width="200" height="20" as="geometry" />
        </mxCell>
        <mxCell id="n7cuw4-B28qV0KOe3FSm-38" value="OrderStatus" style="html=1;align=center;spacing=0;verticalAlign=middle;strokeColor=none;fillColor=none;whiteSpace=wrap;fontStyle=1;" vertex="1" parent="n7cuw4-B28qV0KOe3FSm-36">
          <mxGeometry y="20" width="200" height="14" as="geometry" />
        </mxCell>
        <mxCell id="n7cuw4-B28qV0KOe3FSm-39" value="" style="line;strokeWidth=0.25;fillColor=none;align=left;verticalAlign=middle;spacingTop=-1;spacingLeft=3;spacingRight=3;rotatable=0;labelPosition=right;points=[];portConstraint=eastwest;" vertex="1" parent="n7cuw4-B28qV0KOe3FSm-36">
          <mxGeometry y="34" width="200" height="8" as="geometry" />
        </mxCell>
        <mxCell id="n7cuw4-B28qV0KOe3FSm-40" value="NEW" style="html=1;align=left;spacing=0;spacingLeft=8;verticalAlign=middle;strokeColor=none;fillColor=none;whiteSpace=wrap;" vertex="1" parent="n7cuw4-B28qV0KOe3FSm-36">
          <mxGeometry y="42" width="200" height="18" as="geometry" />
        </mxCell>
        <mxCell id="n7cuw4-B28qV0KOe3FSm-57" style="edgeStyle=orthogonalEdgeStyle;rounded=0;orthogonalLoop=1;jettySize=auto;html=1;exitX=0.5;exitY=1;exitDx=0;exitDy=0;entryX=0.5;entryY=0;entryDx=0;entryDy=0;" edge="1" parent="n7cuw4-B28qV0KOe3FSm-36" source="n7cuw4-B28qV0KOe3FSm-41" target="n7cuw4-B28qV0KOe3FSm-42">
          <mxGeometry relative="1" as="geometry" />
        </mxCell>
        <mxCell id="n7cuw4-B28qV0KOe3FSm-41" value="PLACED" style="html=1;align=left;spacing=0;spacingLeft=8;verticalAlign=middle;strokeColor=none;fillColor=none;whiteSpace=wrap;" vertex="1" parent="n7cuw4-B28qV0KOe3FSm-36">
          <mxGeometry y="60" width="200" height="22" as="geometry" />
        </mxCell>
        <mxCell id="n7cuw4-B28qV0KOe3FSm-42" value="COOKING" style="html=1;align=left;spacing=0;spacingLeft=8;verticalAlign=middle;strokeColor=none;fillColor=none;whiteSpace=wrap;" vertex="1" parent="n7cuw4-B28qV0KOe3FSm-36">
          <mxGeometry y="82" width="200" height="26" as="geometry" />
        </mxCell>
        <mxCell id="n7cuw4-B28qV0KOe3FSm-58" value="READY" style="html=1;align=left;spacing=0;spacingLeft=8;verticalAlign=middle;strokeColor=none;fillColor=none;whiteSpace=wrap;" vertex="1" parent="n7cuw4-B28qV0KOe3FSm-36">
          <mxGeometry y="108" width="200" height="26" as="geometry" />
        </mxCell>
        <mxCell id="n7cuw4-B28qV0KOe3FSm-62" value="SERVED" style="html=1;align=left;spacing=0;spacingLeft=8;verticalAlign=middle;strokeColor=none;fillColor=none;whiteSpace=wrap;" vertex="1" parent="n7cuw4-B28qV0KOe3FSm-36">
          <mxGeometry y="134" width="200" height="26" as="geometry" />
        </mxCell>
        <mxCell id="n7cuw4-B28qV0KOe3FSm-61" value="PAID" style="html=1;align=left;spacing=0;spacingLeft=8;verticalAlign=middle;strokeColor=none;fillColor=none;whiteSpace=wrap;" vertex="1" parent="n7cuw4-B28qV0KOe3FSm-36">
          <mxGeometry y="160" width="200" height="26" as="geometry" />
        </mxCell>
        <mxCell id="n7cuw4-B28qV0KOe3FSm-80" value="«interface»&lt;br&gt;&lt;b&gt;KitchenObserver&lt;/b&gt;" style="html=1;whiteSpace=wrap;" vertex="1" parent="1">
          <mxGeometry x="-1384" y="2210" width="110" height="50" as="geometry" />
        </mxCell>
        <mxCell id="n7cuw4-B28qV0KOe3FSm-88" style="edgeStyle=orthogonalEdgeStyle;rounded=0;orthogonalLoop=1;jettySize=auto;html=1;entryX=0.25;entryY=1;entryDx=0;entryDy=0;" edge="1" parent="1" source="node7" target="n7cuw4-B28qV0KOe3FSm-27">
          <mxGeometry relative="1" as="geometry">
            <mxPoint x="-2540" y="2700" as="targetPoint" />
            <Array as="points">
              <mxPoint x="-2550" y="2832" />
            </Array>
          </mxGeometry>
        </mxCell>
      </root>
    </mxGraphModel>
  </diagram>
</mxfile>
